<svg width="51" height="50" viewBox="0 0 51 50" fill="none" xmlns="http://www.w3.org/2000/svg">
<path opacity="0.6" d="M49.9156 24.292C47.7966 13.9108 35.4978 19.721 30.3343 15.9243C25.1707 12.1275 13.9288 -4.69591 2.56854 12.3082C-6.66456 26.1278 11.9504 42.7963 24.3383 45.584C36.7267 48.3722 51.8724 33.8782 49.9156 24.292Z" fill="url(#paint0_linear_13_1358)"/>
<path opacity="0.4" d="M29.6341 1.3192C24.0221 -1.11225 7.64244 -0.278775 3.24288 21.0807C-0.372113 38.631 22.3505 56.0414 27.6309 46.7125C31.4874 39.9 44.598 32.9264 47.534 23.3834C50.8442 12.6239 41.7645 6.57489 29.6341 1.3192Z" fill="url(#paint1_linear_13_1358)"/>
<path d="M43.1702 37.6612C47.4313 33.2739 51.0746 19.5594 32.6573 7.88149C17.524 -1.71405 6.33612 6.88636 4.02514 15.6927C1.79653 24.185 7.70295 32.1733 15.5888 38.2985C24.479 45.2047 33.9598 47.1445 43.1702 37.6612Z" fill="url(#paint2_linear_13_1358)"/>
<path d="M25.2156 16.6677C21.5527 16.6688 18.5761 19.6454 18.5751 23.3083C18.5761 26.9711 21.5527 29.9478 25.2156 29.9488C28.8785 29.9478 31.8525 26.9706 31.8535 23.3083C31.8525 19.6454 28.8779 16.6682 25.2156 16.6677ZM29.1791 27.2733C28.1618 28.2906 26.7626 28.9186 25.2151 28.9186C23.6676 28.9186 22.2678 28.2901 21.25 27.2733C20.2328 26.2555 19.6047 24.8558 19.6047 23.3083C19.6047 21.7607 20.2333 20.361 21.25 19.3432C22.2678 18.3259 23.6676 17.6979 25.2151 17.6979C26.7626 17.6979 28.1618 18.3264 29.1791 19.3432C30.1958 20.361 30.8234 21.7607 30.8234 23.3088C30.8234 24.8558 30.1958 26.2555 29.1791 27.2733ZM29.9997 10.9539H20.4289C16.2538 10.9549 12.8596 14.3459 12.8591 18.521V28.0944C12.8602 32.2695 16.2538 35.6632 20.4289 35.6642H29.9997C34.1753 35.6632 37.5684 32.2695 37.5695 28.0944V18.521C37.5684 14.3454 34.1748 10.9544 29.9997 10.9539ZM36.5398 28.0944C36.5398 29.8983 35.8073 31.5303 34.6217 32.7169C33.4356 33.9025 31.8031 34.6346 29.9992 34.6351H20.4284C18.6245 34.6351 16.9925 33.9025 15.8059 32.7169C14.6203 31.5308 13.8882 29.8983 13.8877 28.0944V18.521C13.8877 16.7171 14.6203 15.0857 15.8059 13.9001C16.992 12.7155 18.624 11.9835 20.4284 11.9835H29.9992C31.8031 11.9835 33.4356 12.7155 34.6217 13.9001C35.8073 15.0857 36.5393 16.7171 36.5398 18.521V28.0944ZM31.3604 17.7499C30.3277 17.7499 29.4875 16.9097 29.4875 15.877C29.4875 14.8448 30.3277 14.0046 31.3604 14.0046C32.3931 14.0046 33.2332 14.8448 33.2332 15.877C33.2332 16.9097 32.3931 17.7499 31.3604 17.7499ZM31.3604 15.0342C30.8955 15.0342 30.5171 15.4121 30.5171 15.877C30.5171 16.3419 30.895 16.7202 31.3604 16.7202C31.8257 16.7202 32.2036 16.3419 32.2036 15.877C32.2036 15.4121 31.8257 15.0342 31.3604 15.0342Z" fill="#5C5858"/>
<defs>
<linearGradient id="paint0_linear_13_1358" x1="45.0164" y1="38.2806" x2="1.57197" y2="13.9722" gradientUnits="userSpaceOnUse">
<stop stop-color="#FDB600"/>
<stop offset="1" stop-color="#FFCF72"/>
</linearGradient>
<linearGradient id="paint1_linear_13_1358" x1="37.6108" y1="4.69769" x2="8.72768" y2="41.4148" gradientUnits="userSpaceOnUse">
<stop stop-color="#FDB600"/>
<stop offset="1" stop-color="#FDB600"/>
</linearGradient>
<linearGradient id="paint2_linear_13_1358" x1="36.6096" y1="42.6549" x2="13.6743" y2="4.59235" gradientUnits="userSpaceOnUse">
<stop stop-color="#FFCF72"/>
<stop offset="1" stop-color="#FDB600"/>
</linearGradient>
</defs>
</svg>
