<svg width="30" height="30" viewBox="0 0 30 30" fill="none" xmlns="http://www.w3.org/2000/svg">
<g clip-path="url(#clip0_43_228)">
<path d="M15.0133 7.35691C14.7495 7.35691 14.4886 7.37036 14.2315 7.3967C13.9744 7.42303 13.7208 7.46205 13.4716 7.51328C13.2224 7.5645 12.9776 7.62793 12.7378 7.7028L12.0337 7.96133L11.3633 8.28503L10.7307 8.66994L10.1397 9.11204L9.59424 9.60747L9.09832 10.1524L8.65575 10.7428L8.27035 11.3748L7.94647 12.0444C7.84911 12.2734 7.76252 12.5082 7.68755 12.7479C7.61259 12.9876 7.54916 13.2323 7.49783 13.4812C7.44651 13.7301 7.40749 13.9834 7.38106 14.2403C7.35463 14.4972 7.34137 14.7578 7.34137 15.0214C7.34137 15.2849 7.35482 15.5455 7.38106 15.8024C7.40715 16.0573 7.44613 16.3107 7.49783 16.5616C7.54916 16.8115 7.61259 17.0552 7.68755 17.2949C7.76252 17.5346 7.84901 17.7693 7.94647 17.9984L8.27035 18.668L8.65575 19.2999L9.09832 19.8904L9.59424 20.4353L10.1397 20.9308L10.7307 21.3729L11.3633 21.7578L12.0337 22.0815L12.7378 22.34L13.4716 22.5295C13.7228 22.5812 13.9764 22.6201 14.2315 22.6462C14.4912 22.6727 14.7522 22.6859 15.0133 22.6859C15.2771 22.6859 15.5381 22.6724 15.7951 22.6462C16.0501 22.6201 16.3037 22.5812 16.5549 22.5295L17.2889 22.34L17.993 22.0815L18.6632 21.7578L19.2959 21.3729L19.887 20.9308L20.4325 20.4353L20.9284 19.8904L21.371 19.2999L21.7564 18.668L22.0802 17.9984L22.3392 17.2949C22.4141 17.0552 22.4776 16.8105 22.5289 16.5616L22.6457 15.8023C22.672 15.5454 22.6854 15.2848 22.6854 15.0213C22.6854 14.7577 22.672 14.4971 22.6457 14.2402C22.6196 13.9854 22.5806 13.732 22.5289 13.4811C22.4776 13.2312 22.4141 12.9876 22.3392 12.7478L22.0802 12.0443L21.7564 11.3747L21.371 10.7427L20.9284 10.1523L20.4325 9.60738L19.887 9.11194L19.2959 8.66984L18.6632 8.28493L17.993 7.96124L17.2889 7.70271L16.5549 7.51318L15.7951 7.3966C15.5353 7.37007 15.2744 7.35679 15.0133 7.35681V7.35691ZM15.0133 10.0024C15.1877 10.0024 15.3599 10.011 15.5294 10.0281L16.0292 10.1038L16.5119 10.2268L16.9742 10.3947L17.4137 10.6052L17.827 10.8555L18.2133 11.1436L18.5695 11.4667L18.8929 11.8225L19.1812 12.2085L19.4319 12.6223L19.6424 13.0615C19.7056 13.2118 19.7617 13.3659 19.8106 13.5234C19.8594 13.6809 19.9004 13.8419 19.9336 14.0059C19.9667 14.1698 19.9912 14.3367 20.0092 14.5061L20.035 15.0218C20.035 15.1961 20.0263 15.3681 20.0092 15.5376C19.9921 15.7072 19.9669 15.874 19.9336 16.0379C19.9002 16.2018 19.8591 16.3627 19.8106 16.5204L19.6424 16.9822L19.4319 17.4215L19.1812 17.8352L18.8929 18.2213L18.5695 18.5771L18.2133 18.9002L17.827 19.1882L17.4137 19.4386L16.9742 19.6491L16.5119 19.817L16.0292 19.94L15.5294 20.0155C15.3579 20.0327 15.1856 20.0413 15.0132 20.0413C14.8408 20.0413 14.6685 20.0327 14.4969 20.0155L13.9972 19.94C13.8331 19.9067 13.672 19.8656 13.5143 19.817L13.052 19.6491L12.6125 19.4386L12.1993 19.1882L11.8129 18.9002L11.4567 18.5771L11.1333 18.2213L10.845 17.8352L10.5943 17.4215L10.3839 16.9822L10.2157 16.5204L10.0927 16.0379L10.017 15.5376C9.99982 15.3662 9.99123 15.1941 9.99127 15.0218C9.99123 14.8496 9.99982 14.6775 10.017 14.5061C10.034 14.3367 10.0593 14.1697 10.0927 14.0059C10.1257 13.8431 10.1668 13.6822 10.2158 13.5235L10.384 13.0616L10.5944 12.6224L10.8451 12.2086L11.1334 11.8226L11.4568 11.4668L11.813 11.1437L12.1994 10.8556L12.6126 10.6053L13.0521 10.3948C13.2034 10.3313 13.3577 10.2752 13.5145 10.2269L13.9973 10.1039C14.1614 10.0706 14.3284 10.0452 14.4971 10.0282C14.6687 10.011 14.841 10.0025 15.0134 10.0025L15.0133 10.0024Z" fill="url(#paint0_radial_43_228)"/>
<path d="M22.9964 5.17664C22.9355 5.17665 22.8747 5.17973 22.814 5.18586C22.7534 5.19199 22.6932 5.20116 22.6335 5.21335C22.5738 5.22552 22.5147 5.2407 22.4565 5.25881C22.3983 5.27693 22.3411 5.29797 22.285 5.32186C22.2289 5.34576 22.174 5.37248 22.1205 5.40191C22.0671 5.43128 22.0151 5.46333 21.9648 5.49793C21.9145 5.53256 21.866 5.5697 21.8194 5.60922C21.7728 5.6487 21.7283 5.69049 21.6858 5.73445C21.6434 5.77843 21.6032 5.82453 21.5653 5.87256C21.5274 5.92059 21.492 5.9705 21.4591 6.0221C21.4262 6.07366 21.3959 6.12684 21.3683 6.18145C21.3406 6.23609 21.3157 6.2921 21.2936 6.34925C21.2715 6.4064 21.2523 6.46461 21.236 6.52369C21.2197 6.58276 21.2064 6.64262 21.1961 6.70303C21.1857 6.76343 21.1784 6.82431 21.174 6.88544C21.171 6.92875 21.1694 6.97215 21.1694 7.01557C21.1694 7.07691 21.1725 7.1382 21.1786 7.19923C21.1846 7.26023 21.1938 7.32089 21.2059 7.38098C21.218 7.44106 21.233 7.5005 21.251 7.55906C21.269 7.61765 21.29 7.67529 21.3137 7.73177C21.3374 7.78827 21.364 7.84354 21.3932 7.89737C21.4224 7.95119 21.4542 8.0035 21.4886 8.05412C21.523 8.1047 21.5599 8.15352 21.5991 8.20039C21.6384 8.24731 21.6799 8.29221 21.7236 8.33495C21.7673 8.37765 21.8131 8.41813 21.8608 8.45623C21.9086 8.49436 21.9582 8.53006 22.0094 8.5632C22.0607 8.59634 22.1136 8.62688 22.1679 8.6547C22.2222 8.68253 22.2778 8.70761 22.3346 8.72985C22.3913 8.75207 22.4492 8.77141 22.5078 8.78781C22.5665 8.80418 22.626 8.81759 22.686 8.82798C22.746 8.83842 22.8065 8.84583 22.8673 8.85018C22.9103 8.85326 22.9534 8.85479 22.9965 8.8548C23.0575 8.85482 23.1183 8.85177 23.179 8.84566C23.2396 8.83954 23.2998 8.83037 23.3595 8.81818C23.4192 8.806 23.4783 8.79083 23.5365 8.77272C23.5947 8.7546 23.6519 8.73355 23.708 8.70967C23.7641 8.68579 23.819 8.65911 23.8725 8.62971C23.9259 8.60031 23.9779 8.56823 24.0282 8.5336C24.0785 8.499 24.127 8.46189 24.1736 8.4224C24.2202 8.3829 24.2647 8.34107 24.3072 8.29708C24.3496 8.25309 24.3898 8.207 24.4277 8.15897C24.4656 8.11094 24.501 8.06103 24.5339 8.00943C24.5668 7.95784 24.5971 7.90462 24.6247 7.84998C24.6524 7.79534 24.6773 7.73933 24.6994 7.68218C24.7215 7.62504 24.7407 7.56682 24.757 7.50774C24.7733 7.44867 24.7866 7.38882 24.7969 7.3284C24.8073 7.26801 24.8146 7.20713 24.819 7.14599C24.822 7.10268 24.8236 7.05928 24.8236 7.01586C24.8236 6.95456 24.8205 6.89329 24.8144 6.83229C24.8084 6.77129 24.7992 6.71064 24.7871 6.65055C24.775 6.59047 24.76 6.53103 24.742 6.47246C24.724 6.41388 24.703 6.35624 24.6793 6.29976C24.6556 6.24326 24.629 6.18799 24.5998 6.13416C24.5706 6.08034 24.5388 6.02803 24.5044 5.97741C24.47 5.92679 24.433 5.87794 24.3938 5.83104C24.3546 5.78413 24.3131 5.73922 24.2694 5.69649C24.2257 5.65378 24.1799 5.6133 24.1322 5.5752C24.0844 5.5371 24.0348 5.50143 23.9836 5.46832C23.9323 5.43518 23.8794 5.40465 23.8251 5.37683C23.7708 5.349 23.7152 5.32391 23.6584 5.30167C23.6017 5.27946 23.5438 5.26012 23.4852 5.24372C23.4265 5.22731 23.367 5.21388 23.307 5.20345C23.247 5.19305 23.1865 5.18567 23.1257 5.18134C23.0827 5.17827 23.0396 5.17673 22.9964 5.17673V5.17664Z" fill="url(#paint1_radial_43_228)"/>
<path d="M13.5584 0.027135C12.724 0.0257894 11.9793 0.0292489 11.3104 0.0386675L9.51704 0.0867216C8.98576 0.109788 8.51636 0.139867 8.09502 0.178791C7.88436 0.198205 7.6856 0.219926 7.49723 0.243857C7.31798 0.26645 7.13921 0.292758 6.96104 0.322763C6.79141 0.351595 6.63043 0.382733 6.47608 0.416563C6.32173 0.450393 6.1743 0.486916 6.03206 0.526128C5.89301 0.564472 5.75504 0.606648 5.61831 0.652607C5.48434 0.697778 5.35363 0.74564 5.22456 0.79677C4.96641 0.899029 4.71461 1.01378 4.45531 1.14237C4.25579 1.24136 4.07145 1.34161 3.89634 1.44771C3.72123 1.55381 3.55535 1.66588 3.39293 1.78793C3.22566 1.91424 3.06443 2.04837 2.90979 2.18986C2.74814 2.3371 2.58302 2.49904 2.41147 2.68001C2.1959 2.90615 2.00858 3.11702 1.84232 3.32394C1.75918 3.42735 1.68133 3.52961 1.608 3.63244C1.53548 3.73379 1.46616 3.83738 1.40012 3.94306C1.33477 4.04782 1.27288 4.1545 1.21367 4.26426C1.15355 4.37591 1.09672 4.4893 1.04327 4.60429C0.933901 4.83918 0.831834 5.09214 0.729959 5.3745C0.654381 5.58325 0.586705 5.79477 0.527075 6.00862C0.466238 6.22717 0.412129 6.45582 0.363883 6.7031C0.315636 6.95039 0.273541 7.21632 0.236539 7.51041C0.196666 7.83278 0.164812 8.15609 0.141008 8.48005C0.114097 8.83623 0.0918002 9.22816 0.0735396 9.66439L0.030291 11.1149L0.00703273 12.883L0.000305176 15.0201L0.0200074 18.128L0.0815166 20.4826L0.128898 21.4024L0.188101 22.1645C0.207079 22.3699 0.230824 22.5749 0.259317 22.7792C0.285266 22.9607 0.313138 23.1195 0.343123 23.2569C0.403967 23.5363 0.475913 23.8132 0.55879 24.0869C0.638144 24.3489 0.728893 24.6074 0.830777 24.8615C0.930922 25.1104 1.04049 25.3505 1.15966 25.5816C1.27883 25.8126 1.40762 26.0346 1.54601 26.2479C1.68441 26.4611 1.83242 26.6657 1.99042 26.8614C2.14824 27.0572 2.31611 27.2447 2.49335 27.4231C2.67087 27.6018 2.85808 27.772 3.0554 27.9336C3.25504 28.0971 3.46256 28.2507 3.67722 28.394C3.87645 28.5272 4.07357 28.6491 4.27213 28.7611C4.47069 28.8731 4.67098 28.9747 4.87684 29.067C5.0827 29.1594 5.29376 29.2425 5.51423 29.3173C5.7347 29.3921 5.9644 29.4586 6.20717 29.5176C6.44994 29.5766 6.70693 29.6284 6.97892 29.6736C7.25091 29.7187 7.54163 29.7575 7.85226 29.7908C8.16288 29.8242 8.49426 29.8517 8.85034 29.8748C9.20642 29.8979 9.58701 29.9163 9.99595 29.9311C10.6277 29.954 11.5839 29.9674 12.6867 29.9725L16.2566 29.9652L19.6371 29.9179L20.9225 29.8817L21.7599 29.8387C21.9396 29.8241 22.1155 29.8068 22.2852 29.7865C22.4549 29.7662 22.6224 29.743 22.7854 29.7167C22.9484 29.6904 23.1077 29.661 23.2643 29.6283C23.419 29.5961 23.573 29.5601 23.726 29.5204C23.8774 29.4819 24.0268 29.4382 24.1746 29.3918C24.3224 29.3453 24.4687 29.2952 24.6141 29.2414C24.7604 29.1872 24.9053 29.1295 25.0487 29.0683C25.1932 29.0068 25.3374 28.941 25.4822 28.8712C25.7045 28.7642 25.8834 28.6749 26.0406 28.5877C26.1884 28.5066 26.3307 28.416 26.4667 28.3163C26.6009 28.2175 26.7343 28.1051 26.888 27.9634C27.0418 27.8217 27.2161 27.6511 27.4318 27.4352C27.6214 27.2457 27.7814 27.0809 27.9193 26.9311C28.0572 26.7813 28.1734 26.6464 28.2753 26.5165C28.3724 26.3932 28.4629 26.2648 28.5463 26.1319C28.6277 26.0021 28.7027 25.8674 28.7791 25.7179C28.894 25.493 28.9963 25.2848 29.0879 25.0838C29.1768 24.8901 29.258 24.693 29.3314 24.4929C29.4037 24.2944 29.4662 24.0925 29.5189 23.8879C29.5731 23.6775 29.6198 23.4553 29.6602 23.2115C29.7006 22.9678 29.7347 22.7025 29.7643 22.4063C29.7939 22.1101 29.8191 21.7828 29.8412 21.415L29.8998 20.1803L29.9501 18.6447L29.9861 16.934L29.9999 15.1453L29.9678 11.632L29.9249 10.0584L29.8662 8.70735L29.7932 7.654C29.7667 7.36087 29.738 7.13002 29.7077 6.97394C29.6741 6.80148 29.6365 6.62982 29.595 6.45908C29.5547 6.29295 29.5103 6.12782 29.4619 5.96384C29.4148 5.80408 29.3636 5.64554 29.3083 5.48839C29.2537 5.33318 29.1959 5.18123 29.1353 5.03255C29.0748 4.88387 29.0092 4.73865 28.941 4.59651C28.8728 4.45436 28.8013 4.31568 28.7262 4.18016C28.6511 4.04465 28.5729 3.9125 28.4911 3.78362C28.4093 3.65474 28.3242 3.52913 28.2355 3.40688C28.1473 3.28502 28.0553 3.16595 27.9596 3.04984C27.8645 2.93436 27.7657 2.82192 27.6634 2.71269C27.5613 2.60359 27.4558 2.49775 27.347 2.39534C27.2381 2.29289 27.1259 2.1937 27.0102 2.09779C26.8941 2.00155 26.775 1.90896 26.6531 1.82013C26.5299 1.73039 26.404 1.64443 26.2755 1.56237C26.1454 1.47913 26.0127 1.39978 25.8778 1.3244C25.7406 1.24777 25.6012 1.17508 25.4598 1.10643C25.2251 0.992349 25.0081 0.891148 24.795 0.801383C24.5856 0.712296 24.372 0.633174 24.1551 0.564283C23.9369 0.495566 23.7098 0.436652 23.46 0.385811C23.2101 0.334969 22.9376 0.292585 22.6292 0.256545C22.3208 0.220504 21.9764 0.191384 21.5826 0.167165C21.1887 0.142946 20.7458 0.123915 20.2399 0.108537L18.5209 0.0700945L16.3453 0.0444338L13.5594 0.0273256L13.5584 0.027135ZM15.0053 2.6703L19.0229 2.69318L20.5385 2.72239C20.9559 2.73412 21.2744 2.74786 21.4612 2.76372C21.7043 2.78419 21.936 2.80985 22.1575 2.84061C22.3701 2.86997 22.5817 2.90647 22.7918 2.95007C22.9936 2.99236 23.1861 3.04042 23.3704 3.09462C23.5546 3.14883 23.7306 3.20957 23.8995 3.27675C24.0683 3.34393 24.2298 3.41783 24.3852 3.49876C24.5393 3.57907 24.6892 3.66745 24.834 3.76353C24.9782 3.85916 25.1171 3.96219 25.2521 4.0732C25.387 4.1842 25.5178 4.30318 25.6456 4.43043C25.7804 4.56469 25.9048 4.70146 26.0194 4.84254C26.1336 4.98275 26.2393 5.12971 26.3359 5.28262C26.4336 5.43771 26.5216 5.59868 26.5994 5.76461C26.679 5.93376 26.7505 6.11252 26.8147 6.30252C26.8789 6.49253 26.9361 6.69445 26.9867 6.91022C27.0398 7.13897 27.0842 7.36963 27.1199 7.60172C27.1584 7.84775 27.1913 8.11013 27.2191 8.39105C27.247 8.67198 27.2701 8.97155 27.2891 9.29207C27.3043 9.54916 27.3175 9.88842 27.3288 10.2891L27.3569 11.6553L27.3785 15.0018L27.354 18.3451L27.3246 19.7073L27.2841 20.6981C27.256 21.162 27.2264 21.552 27.1911 21.8915C27.1733 22.0612 27.1541 22.2182 27.1327 22.3656C27.1128 22.5048 27.0891 22.6434 27.0617 22.7813C27.0367 22.9072 27.0077 23.0322 26.9747 23.1562C26.9431 23.2745 26.9076 23.3917 26.8681 23.5076C26.8284 23.6241 26.7852 23.7394 26.7385 23.8532C26.6892 23.9735 26.6371 24.0926 26.5823 24.2105C26.5336 24.3157 26.4824 24.4181 26.4282 24.5177C26.3746 24.6164 26.3176 24.7132 26.2575 24.808C26.1979 24.9019 26.1354 24.9931 26.0701 25.0814C26.0051 25.1694 25.9369 25.2551 25.8657 25.3382C25.7948 25.421 25.7208 25.5011 25.644 25.5785C25.5671 25.6558 25.4874 25.7305 25.4047 25.8026C25.322 25.8747 25.2363 25.9439 25.1476 26.0106C25.0589 26.0773 24.9671 26.1413 24.8723 26.2026C24.7774 26.2639 24.6796 26.3227 24.5786 26.3789C24.4775 26.435 24.3734 26.4886 24.2662 26.5397C24.1572 26.5915 24.0466 26.64 23.9347 26.6852C23.819 26.7318 23.7021 26.7753 23.5839 26.8154C23.3437 26.8973 23.0902 26.9692 22.8234 27.0312C22.5454 27.0954 22.2647 27.1479 21.9823 27.1886C21.8737 27.2044 21.6241 27.2193 21.2666 27.2332L19.9041 27.271L16.0415 27.3212L11.9987 27.3276L10.4109 27.3106L9.37999 27.2785L8.61978 27.2251C8.38373 27.2052 8.16422 27.1831 7.95855 27.158C7.75288 27.1329 7.56134 27.105 7.38113 27.0734C7.21037 27.0439 7.04064 27.0087 6.87224 26.9677C6.71869 26.9304 6.56672 26.8868 6.41669 26.8372C6.27204 26.7892 6.13374 26.7363 5.99919 26.6782C5.86464 26.62 5.73393 26.5563 5.60448 26.4867C5.47502 26.4171 5.34691 26.3416 5.21735 26.2592C5.11961 26.1971 5.02513 26.1343 4.93422 26.0677C4.8433 26.0011 4.75545 25.9347 4.67088 25.8651C4.5863 25.7955 4.50509 25.7238 4.42676 25.65C4.34896 25.5765 4.27382 25.5003 4.20149 25.4214C4.12941 25.3428 4.0605 25.2619 3.99437 25.1781C3.92799 25.094 3.86474 25.0074 3.80475 24.9186C3.74387 24.8284 3.68626 24.7361 3.63205 24.6418C3.57726 24.5467 3.52517 24.4482 3.47568 24.3468C3.42535 24.2433 3.37839 24.1383 3.33488 24.0318C3.29067 23.9234 3.24876 23.8115 3.20936 23.696C3.13055 23.4649 3.06135 23.2188 3.00119 22.9565C2.94103 22.6941 2.8897 22.4154 2.84626 22.1184C2.80282 21.8214 2.76784 21.5066 2.73997 21.1719C2.7194 20.9254 2.70306 20.5414 2.69057 20.0571L2.66443 18.3343L2.67404 13.9427L2.74967 9.74618L2.80734 8.26765L2.84002 7.77894C2.85136 7.64842 2.86308 7.55174 2.8751 7.49369C2.91469 7.30272 2.95458 7.12502 2.99581 6.95866C3.03432 6.80171 3.07717 6.64586 3.12431 6.49128C3.16909 6.34539 3.21628 6.20872 3.26674 6.07926C3.31539 5.95386 3.36962 5.83068 3.42926 5.71011C3.4875 5.59286 3.55006 5.48061 3.61801 5.37133C3.68596 5.26206 3.75929 5.15605 3.83925 5.05062C3.91922 4.94519 4.00533 4.8411 4.09904 4.73557C4.19274 4.63005 4.29394 4.52346 4.4037 4.41361C4.53161 4.28497 4.6648 4.16168 4.80293 4.04408C4.93336 3.93312 5.06937 3.82889 5.21043 3.73182C5.34912 3.63571 5.49136 3.55018 5.63946 3.47156C5.78756 3.39294 5.94153 3.32192 6.10347 3.25801C6.26541 3.19409 6.43552 3.13691 6.61573 3.08501C6.80504 3.03191 6.99646 2.9866 7.18949 2.94921C7.39247 2.90942 7.60804 2.87473 7.83822 2.84445C8.0684 2.81418 8.31329 2.78804 8.57509 2.76535C8.75769 2.74959 9.07235 2.73556 9.48667 2.72374L10.9946 2.69395L15.006 2.66944L15.0053 2.6703Z" fill="url(#paint2_radial_43_228)"/>
</g>
<defs>
<radialGradient id="paint0_radial_43_228" cx="0" cy="0" r="1" gradientUnits="userSpaceOnUse" gradientTransform="translate(4.77979 32.1554) rotate(-9.53101) scale(63.4037 38.4857)">
<stop stop-color="#FED576"/>
<stop offset="0.263" stop-color="#F47133"/>
<stop offset="0.609" stop-color="#BC3081"/>
<stop offset="1" stop-color="#4C63D2"/>
</radialGradient>
<radialGradient id="paint1_radial_43_228" cx="0" cy="0" r="1" gradientUnits="userSpaceOnUse" gradientTransform="translate(4.7798 32.1554) rotate(-9.53101) scale(63.4037 38.4857)">
<stop stop-color="#FED576"/>
<stop offset="0.263" stop-color="#F47133"/>
<stop offset="0.609" stop-color="#BC3081"/>
<stop offset="1" stop-color="#4C63D2"/>
</radialGradient>
<radialGradient id="paint2_radial_43_228" cx="0" cy="0" r="1" gradientUnits="userSpaceOnUse" gradientTransform="translate(4.77977 32.1554) rotate(-9.53101) scale(63.4037 38.4857)">
<stop stop-color="#FED576"/>
<stop offset="0.263" stop-color="#F47133"/>
<stop offset="0.609" stop-color="#BC3081"/>
<stop offset="1" stop-color="#4C63D2"/>
</radialGradient>
<clipPath id="clip0_43_228">
<rect width="30" height="30" fill="white"/>
</clipPath>
</defs>
</svg>
