<svg width="25" height="25" viewBox="0 0 25 25" fill="none" xmlns="http://www.w3.org/2000/svg">
<path d="M12.5111 6.13082C12.2912 6.13082 12.0738 6.14203 11.8595 6.16398C11.6453 6.18592 11.434 6.21844 11.2264 6.26112C11.0187 6.30381 10.8147 6.35667 10.6148 6.41906L10.028 6.63451L9.46941 6.90425L8.94226 7.22501L8.4497 7.59343L7.99519 8.00629L7.58193 8.4604L7.21311 8.9524L6.89195 9.47907L6.62205 10.0371C6.54091 10.2279 6.46875 10.4236 6.40628 10.6233C6.34381 10.8231 6.29095 11.027 6.24818 11.2344C6.20542 11.4418 6.1729 11.6529 6.15088 11.867C6.12885 12.081 6.1178 12.2982 6.1178 12.5179C6.1178 12.7375 6.12901 12.9547 6.15088 13.1687C6.17262 13.3811 6.20509 13.5923 6.24818 13.8014C6.29095 14.0096 6.34381 14.2127 6.40628 14.4125C6.46875 14.6122 6.54083 14.8078 6.62205 14.9987L6.89195 15.5567L7.21311 16.0833L7.58193 16.5754L7.99519 17.0295L8.4497 17.4424L8.94226 17.8108L9.46941 18.1315L10.028 18.4013L10.6148 18.6167L11.2264 18.7747C11.4356 18.8177 11.647 18.8502 11.8595 18.8719C12.076 18.894 12.2935 18.905 12.5111 18.905C12.7309 18.905 12.9484 18.8938 13.1625 18.8719C13.3751 18.8502 13.5864 18.8177 13.7957 18.7747L14.4074 18.6167L14.9941 18.4013L15.5527 18.1315L16.0799 17.8108L16.5725 17.4424L17.027 17.0295L17.4403 16.5754L17.8091 16.0833L18.1303 15.5567L18.4002 14.9987L18.616 14.4125C18.6784 14.2127 18.7313 14.0088 18.7741 13.8014L18.8714 13.1687C18.8933 12.9546 18.9045 12.7374 18.9045 12.5178C18.9045 12.2982 18.8933 12.081 18.8714 11.8669C18.8496 11.6545 18.8171 11.4434 18.7741 11.2343C18.7313 11.0261 18.6784 10.8231 18.616 10.6232L18.4002 10.037L18.1303 9.47899L17.8091 8.95232L17.4403 8.46032L17.027 8.00621L16.5725 7.59335L16.0799 7.22493L15.5527 6.90417L14.9941 6.63442L14.4074 6.41898L13.7957 6.26104L13.1625 6.16389C12.9461 6.14179 12.7287 6.13072 12.5111 6.13074V6.13082ZM12.5111 8.33538C12.6564 8.33538 12.7999 8.34259 12.9412 8.35685L13.3576 8.41988L13.7599 8.52239L14.1452 8.66231L14.5114 8.83771L14.8558 9.04634L15.1778 9.28637L15.4746 9.55564L15.7441 9.85213L15.9844 10.1738L16.1932 10.5186L16.3686 10.8847C16.4213 11.0099 16.4681 11.1383 16.5088 11.2696C16.5495 11.4008 16.5837 11.535 16.6113 11.6716C16.6389 11.8083 16.6594 11.9473 16.6743 12.0885L16.6958 12.5183C16.6958 12.6635 16.6886 12.8068 16.6743 12.9481C16.6601 13.0894 16.6391 13.2284 16.6113 13.365C16.5835 13.5015 16.5492 13.6357 16.5088 13.767L16.3686 14.1519L16.1932 14.5179L15.9844 14.8627L15.7441 15.1845L15.4746 15.481L15.1778 15.7502L14.8558 15.9902L14.5114 16.1989L14.1452 16.3743L13.7599 16.5142L13.3576 16.6167L12.9412 16.6797C12.7982 16.694 12.6547 16.7011 12.511 16.7011C12.3673 16.7011 12.2237 16.694 12.0808 16.6797L11.6643 16.6167C11.5276 16.589 11.3933 16.5547 11.2619 16.5142L10.8767 16.3743L10.5104 16.1989L10.166 15.9902L9.84408 15.7502L9.54726 15.481L9.27776 15.1845L9.03749 14.8627L8.82861 14.5179L8.65321 14.1519L8.51306 13.767L8.41054 13.365L8.34751 12.9481C8.33318 12.8053 8.32601 12.6618 8.32605 12.5183C8.32601 12.3747 8.33318 12.2313 8.34751 12.0885C8.36169 11.9473 8.38275 11.8082 8.41054 11.6716C8.43805 11.536 8.4723 11.4019 8.51314 11.2696L8.65329 10.8847L8.82869 10.5187L9.03757 10.1739L9.27784 9.85221L9.54734 9.55572L9.84416 9.28645L10.1661 9.04642L10.5105 8.83779L10.8768 8.66239C11.0028 8.60945 11.1314 8.56275 11.2621 8.52247L11.6644 8.41996C11.8012 8.39225 11.9404 8.3711 12.0809 8.35693C12.2239 8.3426 12.3675 8.33544 12.5112 8.33546L12.5111 8.33538Z" fill="url(#paint0_radial_43_229)"/>
<path d="M19.1637 4.31384C19.1129 4.31385 19.0622 4.31642 19.0117 4.32153C18.9612 4.32664 18.9109 4.33428 18.8612 4.34444C18.8114 4.35458 18.7622 4.36723 18.7137 4.38232C18.6652 4.39742 18.6175 4.41496 18.5708 4.43486C18.524 4.45478 18.4783 4.47705 18.4337 4.50157C18.3892 4.52605 18.3459 4.55275 18.304 4.58158C18.2621 4.61045 18.2217 4.6414 18.1828 4.67433C18.144 4.70723 18.1069 4.74206 18.0715 4.77869C18.0361 4.81534 18.0026 4.85375 17.9711 4.89378C17.9395 4.93381 17.91 4.9754 17.8826 5.0184C17.8552 5.06136 17.8299 5.10568 17.8069 5.15119C17.7838 5.19673 17.7631 5.2434 17.7447 5.29102C17.7263 5.33864 17.7103 5.38716 17.6967 5.43639C17.6831 5.48561 17.672 5.53549 17.6634 5.58584C17.6547 5.63617 17.6486 5.6869 17.645 5.73785C17.6425 5.77394 17.6412 5.81011 17.6412 5.84629C17.6412 5.8974 17.6437 5.94848 17.6488 5.99934C17.6539 6.05018 17.6614 6.10072 17.6715 6.15079C17.6816 6.20086 17.6942 6.25039 17.7092 6.2992C17.7242 6.34802 17.7416 6.39605 17.7614 6.44312C17.7812 6.4902 17.8033 6.53626 17.8276 6.58112C17.852 6.62597 17.8785 6.66956 17.9072 6.71174C17.9358 6.7539 17.9666 6.79458 17.9993 6.83364C18.032 6.87273 18.0666 6.91016 18.103 6.94577C18.1394 6.98136 18.1776 7.01509 18.2173 7.04684C18.2571 7.07861 18.2984 7.10837 18.3412 7.13598C18.3839 7.1636 18.428 7.18905 18.4732 7.21223C18.5185 7.23542 18.5648 7.25632 18.6121 7.27486C18.6594 7.29337 18.7076 7.30949 18.7565 7.32315C18.8054 7.3368 18.855 7.34797 18.905 7.35663C18.955 7.36533 19.0054 7.3715 19.056 7.37513C19.0919 7.37769 19.1278 7.37897 19.1638 7.37898C19.2145 7.37899 19.2653 7.37645 19.3158 7.37137C19.3663 7.36626 19.4165 7.35862 19.4663 7.34846C19.516 7.33832 19.5652 7.32567 19.6137 7.31058C19.6622 7.29548 19.7099 7.27794 19.7567 7.25804C19.8034 7.23814 19.8492 7.2159 19.8937 7.1914C19.9383 7.1669 19.9816 7.14017 20.0235 7.11131C20.0654 7.08248 20.1058 7.05155 20.1446 7.01865C20.1834 6.98573 20.2206 6.95087 20.256 6.91421C20.2913 6.87756 20.3248 6.83915 20.3564 6.79912C20.3879 6.75909 20.4175 6.7175 20.4449 6.6745C20.4723 6.63151 20.4976 6.58716 20.5206 6.54163C20.5436 6.49609 20.5644 6.44942 20.5828 6.4018C20.6012 6.35418 20.6172 6.30566 20.6308 6.25643C20.6444 6.20721 20.6555 6.15733 20.6641 6.10698C20.6727 6.05665 20.6788 6.00592 20.6824 5.95497C20.685 5.91888 20.6863 5.88271 20.6863 5.84653C20.6863 5.79544 20.6837 5.74439 20.6787 5.69356C20.6736 5.64272 20.666 5.59218 20.6559 5.54211C20.6458 5.49204 20.6333 5.44251 20.6183 5.3937C20.6033 5.34488 20.5858 5.29685 20.5661 5.24978C20.5463 5.2027 20.5242 5.15664 20.4998 5.11178C20.4755 5.06693 20.449 5.02334 20.4203 4.98115C20.3916 4.93897 20.3608 4.89826 20.3281 4.85918C20.2955 4.82009 20.2609 4.78266 20.2245 4.74705C20.1881 4.71146 20.1499 4.67773 20.1101 4.64598C20.0703 4.61423 20.029 4.58451 19.9863 4.55692C19.9436 4.5293 19.8995 4.50385 19.8542 4.48067C19.809 4.45748 19.7626 4.43657 19.7153 4.41804C19.668 4.39953 19.6199 4.38341 19.5709 4.36975C19.522 4.35608 19.4725 4.34488 19.4225 4.33619C19.3724 4.32752 19.322 4.32137 19.2714 4.31777C19.2356 4.31521 19.1996 4.31392 19.1637 4.31392V4.31384Z" fill="url(#paint1_radial_43_229)"/>
<path d="M11.2987 0.0226328C10.6033 0.0215116 9.98277 0.0243944 9.42534 0.0322433L7.93086 0.0722884C7.48812 0.09151 7.09696 0.116576 6.74584 0.149013C6.57029 0.165191 6.40466 0.183292 6.24768 0.203234C6.0983 0.222062 5.94933 0.243986 5.80086 0.268989C5.6595 0.293017 5.52535 0.318964 5.39672 0.347156C5.2681 0.375348 5.14524 0.405783 5.02671 0.43846C4.91083 0.470413 4.79586 0.50556 4.68192 0.54386C4.57027 0.581502 4.46135 0.621387 4.35379 0.663995C4.13867 0.749211 3.92883 0.844837 3.71275 0.951998C3.54648 1.03449 3.39287 1.11802 3.24694 1.20644C3.10102 1.29486 2.96278 1.38825 2.82743 1.48996C2.68804 1.59522 2.55368 1.70699 2.42482 1.8249C2.2901 1.9476 2.15251 2.08255 2.00955 2.23336C1.82991 2.42181 1.67381 2.59753 1.53525 2.76997C1.46598 2.85614 1.4011 2.94136 1.33999 3.02706C1.27956 3.11151 1.22179 3.19784 1.16676 3.28591C1.1123 3.37321 1.06072 3.46211 1.01138 3.55357C0.961279 3.64661 0.913925 3.7411 0.869383 3.83693C0.778241 4.03267 0.693185 4.24347 0.608289 4.47877C0.545308 4.65273 0.488911 4.829 0.439219 5.00721C0.388522 5.18933 0.343431 5.37987 0.303225 5.58594C0.26302 5.79201 0.227941 6.01362 0.197106 6.2587C0.163878 6.52734 0.137333 6.79677 0.117496 7.06673C0.0950709 7.36354 0.07649 7.69015 0.0612728 8.05368L0.0252323 9.2624L0.00585043 10.7358L0.000244141 12.5168L0.0166626 15.1067L0.0679203 17.0689L0.107405 17.8353L0.15674 18.4705C0.172556 18.6416 0.192343 18.8124 0.216087 18.9827C0.237712 19.1339 0.260938 19.2662 0.285926 19.3808C0.336629 19.6136 0.396584 19.8443 0.465648 20.0724C0.531777 20.2908 0.607401 20.5062 0.692304 20.7179C0.775758 20.9254 0.867061 21.1254 0.966373 21.318C1.06568 21.5105 1.17301 21.6955 1.28834 21.8732C1.40367 22.051 1.527 22.2214 1.65867 22.3845C1.79019 22.5477 1.93008 22.7039 2.07778 22.8526C2.22571 23.0016 2.38173 23.1433 2.54615 23.278C2.71252 23.4143 2.88546 23.5423 3.06434 23.6617C3.23036 23.7727 3.39463 23.8743 3.5601 23.9676C3.72556 24.0609 3.89247 24.1456 4.06402 24.2225C4.23558 24.2995 4.41145 24.3688 4.59518 24.4311C4.77891 24.4934 4.97032 24.5488 5.17263 24.598C5.37494 24.6472 5.5891 24.6903 5.81576 24.728C6.04241 24.7656 6.28468 24.7979 6.54354 24.8257C6.80239 24.8535 7.07854 24.8765 7.37527 24.8957C7.67201 24.9149 7.98917 24.9303 8.32995 24.9426C8.85638 24.9617 9.65328 24.9728 10.5722 24.9771L13.5472 24.9711L16.3643 24.9316L17.4354 24.9015L18.1332 24.8656C18.283 24.8534 18.4296 24.839 18.571 24.8221C18.7124 24.8052 18.852 24.7859 18.9878 24.7639C19.1236 24.742 19.2564 24.7175 19.3869 24.6903C19.5158 24.6634 19.6441 24.6334 19.7716 24.6003C19.8979 24.5683 20.0223 24.5318 20.1455 24.4932C20.2687 24.4545 20.3906 24.4127 20.5118 24.3678C20.6336 24.3227 20.7544 24.2746 20.8739 24.2236C20.9943 24.1723 21.1145 24.1175 21.2351 24.0594C21.4204 23.9702 21.5695 23.8958 21.7005 23.8231C21.8236 23.7555 21.9423 23.68 22.0556 23.597C22.1674 23.5146 22.2785 23.4209 22.4067 23.3029C22.5348 23.1848 22.68 23.0426 22.8598 22.8627C23.0179 22.7047 23.1511 22.5675 23.2661 22.4426C23.381 22.3177 23.4778 22.2054 23.5627 22.0971C23.6436 21.9944 23.719 21.8874 23.7886 21.7766C23.8564 21.6685 23.9189 21.5562 23.9825 21.4316C24.0783 21.2442 24.1635 21.0707 24.2399 20.9032C24.314 20.7418 24.3817 20.5775 24.4428 20.4108C24.503 20.2454 24.5552 20.0771 24.5991 19.9066C24.6442 19.7312 24.6832 19.5461 24.7168 19.343C24.7504 19.1398 24.7789 18.9188 24.8035 18.672C24.8282 18.4251 24.8492 18.1523 24.8676 17.8458L24.9165 16.8169L24.9584 15.5373L24.9884 14.1117L24.9999 12.6211L24.9732 9.69337L24.9374 8.38205L24.8885 7.25614L24.8277 6.37835C24.8055 6.13408 24.7817 5.9417 24.7564 5.81163C24.7284 5.66792 24.6971 5.52487 24.6625 5.38259C24.6289 5.24415 24.5919 5.10654 24.5516 4.96988C24.5123 4.83675 24.4696 4.70464 24.4236 4.57368C24.3781 4.44433 24.3299 4.31771 24.2794 4.19381C24.229 4.06991 24.1744 3.9489 24.1175 3.83044C24.0606 3.71199 24.001 3.59642 23.9385 3.48349C23.8759 3.37056 23.8108 3.26044 23.7426 3.15304C23.6744 3.04564 23.6035 2.94096 23.5296 2.83908C23.4561 2.73753 23.3794 2.63831 23.2997 2.54155C23.2204 2.44532 23.1381 2.35162 23.0529 2.26059C22.9678 2.16968 22.8798 2.08148 22.7891 1.99614C22.6984 1.91076 22.6049 1.82811 22.5085 1.74818C22.4117 1.66798 22.3124 1.59082 22.2109 1.5168C22.1082 1.44202 22.0033 1.37038 21.8963 1.30199C21.7878 1.23263 21.6773 1.1665 21.5649 1.10369C21.4505 1.03983 21.3343 0.979252 21.2165 0.922045C21.0209 0.826977 20.84 0.742644 20.6625 0.66784C20.488 0.593601 20.31 0.527665 20.1292 0.470256C19.9474 0.412992 19.7582 0.363897 19.55 0.321529C19.3417 0.279161 19.1147 0.243842 18.8576 0.213808C18.6006 0.183774 18.3137 0.159507 17.9855 0.139324C17.6573 0.119142 17.2881 0.103282 16.8666 0.090468L15.4341 0.0584324L13.6211 0.0370485L11.2995 0.0227917L11.2987 0.0226328ZM12.5044 2.22527L15.8524 2.24434L17.1154 2.26868C17.4633 2.27845 17.7287 2.28991 17.8843 2.30312C18.0869 2.32018 18.28 2.34156 18.4646 2.36719C18.6417 2.39166 18.818 2.42208 18.9932 2.45842C19.1614 2.49366 19.3218 2.5337 19.4753 2.57887C19.6288 2.62404 19.7755 2.67466 19.9162 2.73064C20.0569 2.78663 20.1915 2.84822 20.321 2.91565C20.4494 2.98258 20.5743 3.05623 20.695 3.1363C20.8151 3.21599 20.9309 3.30185 21.0434 3.39435C21.1558 3.48685 21.2648 3.58601 21.3713 3.69205C21.4836 3.80393 21.5873 3.9179 21.6828 4.03547C21.778 4.15232 21.8661 4.27478 21.9466 4.40221C22.028 4.53144 22.1013 4.66558 22.1662 4.80386C22.2325 4.94482 22.2921 5.09378 22.3456 5.25212C22.3991 5.41046 22.4467 5.57873 22.4889 5.75853C22.5331 5.94916 22.5702 6.14138 22.5999 6.33478C22.632 6.53981 22.6594 6.75846 22.6826 6.99256C22.7058 7.22667 22.725 7.47631 22.7409 7.74341C22.7536 7.95765 22.7646 8.24037 22.774 8.57427L22.7974 9.71275L22.8154 12.5015L22.795 15.2876L22.7705 16.4228L22.7367 17.2484C22.7134 17.635 22.6887 17.96 22.6592 18.2429C22.6444 18.3844 22.6284 18.5152 22.6106 18.638C22.5939 18.754 22.5742 18.8695 22.5514 18.9845C22.5306 19.0893 22.5064 19.1935 22.4789 19.2968C22.4526 19.3954 22.423 19.4931 22.3901 19.5897C22.357 19.6868 22.321 19.7828 22.2821 19.8777C22.241 19.9779 22.1976 20.0772 22.1519 20.1754C22.1113 20.2631 22.0686 20.3484 22.0235 20.4315C21.9788 20.5137 21.9314 20.5943 21.8812 20.6733C21.8316 20.7516 21.7795 20.8276 21.725 20.9012C21.6709 20.9746 21.6141 21.0459 21.5548 21.1152C21.4956 21.1842 21.434 21.251 21.37 21.3154C21.3059 21.3799 21.2395 21.4421 21.1706 21.5022C21.1017 21.5623 21.0303 21.6199 20.9563 21.6755C20.8824 21.7311 20.8059 21.7844 20.7269 21.8355C20.6478 21.8866 20.5663 21.9356 20.4821 21.9824C20.3979 22.0292 20.3111 22.0739 20.2218 22.1164C20.131 22.1596 20.0389 22.2 19.9456 22.2377C19.8492 22.2765 19.7517 22.3127 19.6533 22.3462C19.453 22.4144 19.2418 22.4743 19.0195 22.526C18.7878 22.5795 18.5539 22.6233 18.3186 22.6572C18.2281 22.6704 18.0201 22.6828 17.7221 22.6943L16.5868 22.7259L13.3679 22.7677L9.99887 22.773L8.67578 22.7589L7.81665 22.7321L7.18314 22.6876C6.98644 22.671 6.80351 22.6526 6.63212 22.6317C6.46072 22.6108 6.3011 22.5875 6.15093 22.5612C6.00863 22.5366 5.86719 22.5072 5.72686 22.4731C5.5989 22.442 5.47225 22.4057 5.34723 22.3644C5.22669 22.3243 5.11144 22.2803 4.99932 22.2318C4.88719 22.1834 4.77827 22.1303 4.67039 22.0723C4.5625 22.0143 4.45574 21.9513 4.34778 21.8827C4.26633 21.831 4.1876 21.7786 4.11184 21.7231C4.03607 21.6676 3.96287 21.6122 3.89239 21.5543C3.82191 21.4963 3.75423 21.4365 3.68896 21.375C3.62412 21.3138 3.5615 21.2503 3.50123 21.1846C3.44116 21.119 3.38374 21.0516 3.32863 20.9818C3.27332 20.9117 3.22061 20.8395 3.17062 20.7655C3.11988 20.6904 3.07188 20.6135 3.02669 20.5349C2.98104 20.4556 2.93763 20.3736 2.89639 20.289C2.85445 20.2028 2.81532 20.1153 2.77905 20.0265C2.74221 19.9362 2.70729 19.843 2.67446 19.7467C2.60878 19.5541 2.55112 19.349 2.50098 19.1304C2.45085 18.9118 2.40808 18.6795 2.37188 18.432C2.33568 18.1845 2.30652 17.9222 2.2833 17.6433C2.26616 17.4379 2.25254 17.1179 2.24213 16.7142L2.22035 15.2786L2.22835 11.6189L2.29139 8.12184L2.33944 6.88973L2.36667 6.48247C2.37612 6.37371 2.38589 6.29314 2.3959 6.24476C2.4289 6.08562 2.46214 5.93754 2.4965 5.7989C2.52859 5.66811 2.5643 5.53823 2.60358 5.40942C2.6409 5.28784 2.68022 5.17396 2.72227 5.06607C2.76282 4.96157 2.80801 4.85892 2.8577 4.75845C2.90624 4.66074 2.95838 4.56719 3.015 4.47613C3.07162 4.38507 3.13273 4.29673 3.19937 4.20887C3.266 4.12101 3.33776 4.03427 3.41585 3.94633C3.49394 3.85839 3.57828 3.76957 3.66974 3.67803C3.77633 3.57083 3.88733 3.46809 4.00243 3.37008C4.11112 3.27762 4.22446 3.19077 4.34202 3.10987C4.45759 3.02978 4.57612 2.9585 4.69954 2.89299C4.82296 2.82747 4.95126 2.76829 5.08621 2.71503C5.22117 2.66177 5.36293 2.61411 5.5131 2.57086C5.67086 2.52661 5.83037 2.48886 5.99123 2.4577C6.16038 2.42454 6.34003 2.39562 6.53184 2.3704C6.72366 2.34517 6.92773 2.32338 7.14589 2.30448C7.29807 2.29135 7.56028 2.27965 7.90555 2.2698L9.16217 2.24498L12.505 2.22455L12.5044 2.22527Z" fill="url(#paint2_radial_43_229)"/>
<defs>
<radialGradient id="paint0_radial_43_229" cx="0" cy="0" r="1" gradientUnits="userSpaceOnUse" gradientTransform="translate(3.98315 26.7962) rotate(-9.53101) scale(52.8364 32.0714)">
<stop stop-color="#FED576"/>
<stop offset="0.263" stop-color="#F47133"/>
<stop offset="0.609" stop-color="#BC3081"/>
<stop offset="1" stop-color="#4C63D2"/>
</radialGradient>
<radialGradient id="paint1_radial_43_229" cx="0" cy="0" r="1" gradientUnits="userSpaceOnUse" gradientTransform="translate(3.98315 26.7961) rotate(-9.53101) scale(52.8364 32.0714)">
<stop stop-color="#FED576"/>
<stop offset="0.263" stop-color="#F47133"/>
<stop offset="0.609" stop-color="#BC3081"/>
<stop offset="1" stop-color="#4C63D2"/>
</radialGradient>
<radialGradient id="paint2_radial_43_229" cx="0" cy="0" r="1" gradientUnits="userSpaceOnUse" gradientTransform="translate(3.98313 26.7962) rotate(-9.53101) scale(52.8364 32.0714)">
<stop stop-color="#FED576"/>
<stop offset="0.263" stop-color="#F47133"/>
<stop offset="0.609" stop-color="#BC3081"/>
<stop offset="1" stop-color="#4C63D2"/>
</radialGradient>
</defs>
</svg>
