<svg width="25" height="25" viewBox="0 0 25 25" fill="none" xmlns="http://www.w3.org/2000/svg">
<path fill-rule="evenodd" clip-rule="evenodd" d="M23.9258 7.03125C23.9258 3.74336 21.2566 1.07422 17.9688 1.07422H7.03125C3.74336 1.07422 1.07422 3.74336 1.07422 7.03125V17.9688C1.07422 21.2566 3.74336 23.9258 7.03125 23.9258H17.9688C21.2566 23.9258 23.9258 21.2566 23.9258 17.9688V7.03125ZM22.9492 7.03125V17.9688C22.9492 20.7176 20.7176 22.9492 17.9688 22.9492H7.03125C4.28242 22.9492 2.05078 20.7176 2.05078 17.9688V7.03125C2.05078 4.28242 4.28242 2.05078 7.03125 2.05078H17.9688C20.7176 2.05078 22.9492 4.28242 22.9492 7.03125Z" fill="white"/>
<path fill-rule="evenodd" clip-rule="evenodd" d="M12.5 6.83594C9.37384 6.83594 6.83588 9.3739 6.83588 12.5001C6.83588 15.6262 9.37384 18.1642 12.5 18.1642C15.6262 18.1642 18.1641 15.6262 18.1641 12.5001C18.1641 9.3739 15.6262 6.83594 12.5 6.83594ZM12.5 7.81264C15.087 7.81264 17.1874 9.91309 17.1874 12.5001C17.1874 15.087 15.087 17.1875 12.5 17.1875C9.91303 17.1875 7.81257 15.087 7.81257 12.5001C7.81257 9.91309 9.91303 7.81264 12.5 7.81264Z" fill="white"/>
<path fill-rule="evenodd" clip-rule="evenodd" d="M19.1407 4.19922C18.2244 4.19922 17.4805 4.94309 17.4805 5.85936C17.4805 6.77563 18.2244 7.51949 19.1407 7.51949C20.0569 7.51949 20.8008 6.77563 20.8008 5.85936C20.8008 4.94309 20.0569 4.19922 19.1407 4.19922ZM19.1407 5.17574C19.5179 5.17574 19.8243 5.48208 19.8243 5.85936C19.8243 6.23663 19.5179 6.54297 19.1407 6.54297C18.7634 6.54297 18.457 6.23663 18.457 5.85936C18.457 5.48208 18.7634 5.17574 19.1407 5.17574Z" fill="white"/>
</svg>
