<svg width="30" height="30" viewBox="0 0 30 30" fill="none" xmlns="http://www.w3.org/2000/svg">
<g clip-path="url(#clip0_43_233)">
<path d="M25.5 0H4.5C2.01472 0 0 2.01472 0 4.5V25.5C0 27.9853 2.01472 30 4.5 30H25.5C27.9853 30 30 27.9853 30 25.5V4.5C30 2.01472 27.9853 0 25.5 0Z" fill="#37AEE2"/>
<path d="M11.6602 23.6719C11.0156 23.6719 11.0742 23.4375 10.8984 22.8516L9.02344 16.6992L23.3789 8.26172" fill="#C8DAEA"/>
<path d="M11.6602 23.6719C12.0703 23.6719 12.3047 23.4375 12.5977 23.2031L15.2344 20.6836L11.9531 18.6914" fill="#A9C9DD"/>
<path d="M11.9531 18.6914L19.8633 24.4922C20.6836 25.0195 21.3867 24.7266 21.6211 23.6719L24.8437 8.5547C25.1367 7.26564 24.3164 6.6797 23.4375 7.08986L4.6289 14.3555C3.39844 14.8242 3.39844 15.586 4.39453 15.8789L9.25781 17.4024L20.3906 10.3125C20.918 10.0195 21.3867 10.1367 21.0352 10.5469" fill="#F6FBFE"/>
</g>
<defs>
<clipPath id="clip0_43_233">
<rect width="30" height="30" fill="white"/>
</clipPath>
</defs>
</svg>
