<svg width="26" height="25" viewBox="0 0 26 25" fill="none" xmlns="http://www.w3.org/2000/svg">
<g clip-path="url(#clip0_41_215)">
<path fill-rule="evenodd" clip-rule="evenodd" d="M13.4438 10.6422C11.8931 12.0693 10.3794 13.4201 10.3794 13.4201C10.1701 13.6066 10.1522 13.9276 10.3388 14.137C10.5254 14.3459 10.8463 14.3642 11.0557 14.1776C11.0557 14.1776 15.0209 10.6382 16.714 8.94507C16.9725 8.68706 17.0502 8.48931 17.064 8.40717C17.0993 8.19827 17.0261 8.05096 16.9207 7.94383C16.8435 7.86482 16.7288 7.78982 16.5529 7.78224C16.4667 7.77866 16.2752 7.81214 16.0172 7.93356C14.5415 8.62769 8.67334 12.5371 8.67334 12.5371C8.43988 12.6925 8.37694 13.008 8.53228 13.2411C8.68807 13.4745 9.00366 13.5375 9.23667 13.3821C9.23667 13.3821 11.4208 11.9251 13.4438 10.6422Z" fill="white"/>
<path fill-rule="evenodd" clip-rule="evenodd" d="M13 0.117188C6.4415 0.117188 1.11719 5.4415 1.11719 12C1.11719 18.5585 6.4415 23.8828 13 23.8828C19.5585 23.8828 24.8828 18.5585 24.8828 12C24.8828 5.4415 19.5585 0.117188 13 0.117188ZM13 1.13281C18.9979 1.13281 23.8672 6.00213 23.8672 12C23.8672 17.9979 18.9979 22.8672 13 22.8672C7.00213 22.8672 2.13281 17.9979 2.13281 12C2.13281 6.00213 7.00213 1.13281 13 1.13281Z" fill="white"/>
<path fill-rule="evenodd" clip-rule="evenodd" d="M8.54749 13.3615L9.63399 16.896C9.638 16.9089 9.64247 16.9219 9.64738 16.9344C9.763 17.2245 9.87905 17.3932 9.96208 17.4731C10.1121 17.6178 10.2661 17.6513 10.3937 17.6477C10.5732 17.6423 10.8624 17.5352 10.9772 17.1098C10.9852 17.0785 10.991 17.0469 10.9932 17.0147L11.1575 14.7524L15.4495 17.9093C15.8905 18.2441 16.2869 18.315 16.5873 18.2235C16.8971 18.1289 17.1971 17.845 17.339 17.2406C17.3399 17.237 17.3408 17.2334 17.3412 17.2299L19.4598 7.2474C19.5861 6.71576 19.5151 6.31848 19.3424 6.08636C19.142 5.81629 18.763 5.63283 18.1184 5.80692C18.101 5.81138 18.0836 5.81718 18.0671 5.82388L5.62368 10.6497C5.60449 10.6573 5.58573 10.6662 5.56743 10.6756C4.97776 10.9921 4.84653 11.3541 4.84474 11.5885C4.84251 11.9041 5.06391 12.2094 5.43977 12.3603C5.45093 12.3647 5.46209 12.3692 5.4737 12.3728L8.54749 13.3615ZM18.505 6.76441C18.5001 6.83673 18.4902 6.93493 18.4706 7.01751C18.4693 7.02197 18.4684 7.02644 18.4675 7.0309L16.3494 17.012C16.3315 17.0857 16.2963 17.1701 16.2726 17.2227C16.2164 17.1951 16.1266 17.1482 16.0619 17.0986C16.0592 17.0968 16.057 17.0951 16.0543 17.0933L11.0182 13.3896C10.8696 13.2803 10.6727 13.2602 10.5049 13.3374C10.337 13.4151 10.2246 13.5776 10.2112 13.7619L10.1197 15.0194L9.44026 12.8102C9.3916 12.6518 9.2684 12.5268 9.11038 12.4759L6.16693 11.5287L18.4054 6.78182C18.4385 6.77423 18.4733 6.76843 18.505 6.76441Z" fill="white"/>
<path fill-rule="evenodd" clip-rule="evenodd" d="M10.7267 17.5214L12.9345 15.6149C13.1466 15.4319 13.1702 15.1109 12.9872 14.8989C12.8037 14.6869 12.4828 14.6632 12.2708 14.8462L10.0634 16.7527C9.85092 16.9357 9.82771 17.2567 10.0107 17.4687C10.1937 17.6812 10.5147 17.7044 10.7267 17.5214Z" fill="white"/>
</g>
<defs>
<clipPath id="clip0_41_215">
<rect width="26" height="26" fill="white" transform="translate(0 -1)"/>
</clipPath>
</defs>
</svg>
