<svg width="51" height="50" viewBox="0 0 51 50" fill="none" xmlns="http://www.w3.org/2000/svg">
<path opacity="0.6" d="M49.9156 24.5565C47.7966 14.1754 35.4978 19.9855 30.3343 16.1888C25.1702 12.3926 13.9288 -4.43137 2.56854 12.5728C-6.66456 26.3923 11.9504 43.0608 24.3383 45.8485C36.7267 48.6372 51.8724 34.1428 49.9156 24.5565Z" fill="url(#paint0_linear_13_1330)"/>
<path opacity="0.4" d="M29.6341 1.58409C24.0221 -0.847356 7.64244 -0.0138862 3.24288 21.3456C-0.372112 38.8959 22.3505 56.3058 27.6309 46.9774C31.4874 40.1649 44.598 33.1913 47.534 23.6483C50.8442 12.8883 41.7645 6.83978 29.6341 1.58409Z" fill="url(#paint1_linear_13_1330)"/>
<path d="M43.1705 37.926C47.4315 33.5388 51.0749 19.8243 32.6575 8.14638C17.5242 -1.44915 6.33637 7.15124 4.02539 15.9576C1.79678 24.4499 7.70319 32.4382 15.589 38.5634C24.4793 45.469 33.96 47.4093 43.1705 37.926Z" fill="url(#paint2_linear_13_1330)"/>
<path d="M16.2929 34.3224C15.9819 34.3224 15.6787 34.2153 15.4373 34.0207C15.0331 33.6974 14.8452 33.1589 14.96 32.6508L16.9961 23.8321C17.046 23.6179 17.2252 23.4583 17.444 23.4357L32.2952 21.8779L17.444 20.3201C17.2252 20.2974 17.046 20.1378 16.9961 19.9237L14.9605 11.1076C14.8447 10.5979 15.0331 10.0594 15.4388 9.73404C15.8429 9.41074 16.4319 9.34536 16.8906 9.57188L39.8923 20.6475C40.3623 20.872 40.6665 21.3548 40.6665 21.8784C40.6665 22.4025 40.3623 22.8854 39.8923 23.1098L39.7131 23.1953L16.8864 34.1875C16.7078 34.2755 16.506 34.3224 16.2929 34.3224ZM17.9171 24.4216L15.9644 32.8804C15.9356 33.007 15.9804 33.1373 16.0823 33.2181C16.1863 33.3015 16.3305 33.3139 16.435 33.2619L39.4495 22.1806C39.5638 22.126 39.6374 22.0076 39.6374 21.8784C39.6374 21.7497 39.5633 21.6318 39.4495 21.5767L39.2704 21.4913L16.4406 10.498C16.3191 10.4378 16.1817 10.4589 16.0823 10.5382C15.9814 10.6195 15.9361 10.7498 15.9649 10.8785L17.9171 19.3347L37.2842 21.3662C37.5463 21.3935 37.7455 21.6143 37.7455 21.8779C37.7455 22.1415 37.5463 22.3623 37.2842 22.3896L17.9171 24.4216Z" fill="#5C5858"/>
<defs>
<linearGradient id="paint0_linear_13_1330" x1="45.0196" y1="38.5502" x2="1.57517" y2="14.2419" gradientUnits="userSpaceOnUse">
<stop stop-color="#FDB600"/>
<stop offset="1" stop-color="#FFCF72"/>
</linearGradient>
<linearGradient id="paint1_linear_13_1330" x1="37.6143" y1="4.95676" x2="8.73115" y2="41.6739" gradientUnits="userSpaceOnUse">
<stop stop-color="#FDB600"/>
<stop offset="1" stop-color="#FFCF72"/>
</linearGradient>
<linearGradient id="paint2_linear_13_1330" x1="36.6146" y1="42.9155" x2="13.6793" y2="4.85291" gradientUnits="userSpaceOnUse">
<stop stop-color="#FFCF72"/>
<stop offset="1" stop-color="#FDB600"/>
</linearGradient>
</defs>
</svg>
