<svg width="35" height="24" viewBox="0 0 35 24" fill="none" xmlns="http://www.w3.org/2000/svg">
<path d="M33.4925 3.75889C33.2955 3.03269 32.9119 2.37066 32.3799 1.8386C31.8478 1.30654 31.1858 0.922966 30.4596 0.725992C27.8006 1.9133e-07 17.0985 0 17.0985 0C17.0985 0 6.3959 0.0214001 3.73642 0.747392C3.01022 0.944366 2.34819 1.32794 1.81613 1.86C1.28407 2.39206 0.900496 3.05409 0.703522 3.78029C0 6.43977 0 12 0 12C0 12 0 17.5602 0.725457 20.2411C0.922431 20.9673 1.30601 21.6293 1.83807 22.1614C2.37013 22.6935 3.03215 23.077 3.75836 23.274C6.4173 24 17.1199 24 17.1199 24C17.1199 24 27.8226 24 30.482 23.2745C31.2082 23.0776 31.8703 22.694 32.4023 22.1619C32.9344 21.6299 33.318 20.9678 33.5149 20.2416C34.2399 17.5822 34.2399 12 34.2399 12C34.2399 12 34.2185 6.43977 33.4925 3.75889Z" fill="#FF0000"/>
<path d="M13.6917 17.1424L22.57 12L13.6912 6.8576L13.6917 17.1424Z" fill="white"/>
</svg>
