<svg width="31" height="23" viewBox="0 0 31 23" fill="none" xmlns="http://www.w3.org/2000/svg">
<path fill-rule="evenodd" clip-rule="evenodd" d="M30.582 6.4175C30.582 3.2562 28.0158 0.689941 24.855 0.689941H6.14501C2.98423 0.689941 0.417969 3.2562 0.417969 6.4175V16.5825C0.417969 19.7438 2.98423 22.3101 6.14501 22.3101H24.855C28.0158 22.3101 30.582 19.7438 30.582 16.5825V6.4175ZM29.293 6.4175V16.5825C29.293 19.0323 27.3042 21.021 24.855 21.021H6.14501C3.69579 21.021 1.70703 19.0323 1.70703 16.5825V6.4175C1.70703 3.96777 3.69579 1.979 6.14501 1.979H24.855C27.3042 1.979 29.293 3.96777 29.293 6.4175Z" fill="white"/>
<path fill-rule="evenodd" clip-rule="evenodd" d="M19.5141 12.0764C19.7322 11.9676 19.8704 11.7444 19.8704 11.5C19.8704 11.2561 19.7322 11.0328 19.5141 10.9235L12.0618 7.1976C11.8623 7.09757 11.6251 7.10839 11.4348 7.22595C11.245 7.343 11.129 7.5508 11.129 7.77406V15.2264C11.129 15.4497 11.245 15.6569 11.4348 15.7745C11.6251 15.8921 11.8623 15.9024 12.0618 15.8029L19.5141 12.0764ZM17.7847 11.5L12.4181 14.1833V8.81718L17.7847 11.5Z" fill="white"/>
</svg>
