<svg width="31" height="26" viewBox="0 0 31 26" fill="none" xmlns="http://www.w3.org/2000/svg">
<path d="M30.3233 4.02739C30.145 3.24931 29.7977 2.53999 29.316 1.96993C28.8343 1.39987 28.2349 0.988893 27.5774 0.777849C25.1701 1.6115e-07 15.4806 0 15.4806 0C15.4806 0 5.7907 0.0229286 3.38288 0.800777C2.72538 1.01182 2.126 1.42279 1.64428 1.99286C1.16257 2.56292 0.815289 3.27223 0.636953 4.05031C0 6.89975 0 12.8571 0 12.8571C0 12.8571 0 18.8145 0.656812 21.6869C0.835149 22.465 1.18243 23.1743 1.66414 23.7444C2.14586 24.3144 2.74524 24.7254 3.40273 24.9364C5.81008 25.7143 15.5 25.7143 15.5 25.7143C15.5 25.7143 25.1899 25.7143 27.5978 24.937C28.2552 24.726 28.8546 24.315 29.3363 23.7449C29.8181 23.1749 30.1653 22.4656 30.3437 21.6875C31 18.838 31 12.8571 31 12.8571C31 12.8571 30.9806 6.89975 30.3233 4.02739Z" fill="#FF0000"/>
<path d="M12.0005 19L21.3 12.5L12 6.00002L12.0005 19Z" fill="white"/>
</svg>
