<svg width="51" height="52" viewBox="0 0 51 52" fill="none" xmlns="http://www.w3.org/2000/svg">
<path opacity="0.4" d="M36.1439 51.0056C31.156 52.501 26.8344 50.6509 27.1881 44.072C27.5418 37.4932 20.099 41.7233 9.65591 33.5343C-0.787233 25.3453 3.06347 14.7236 15.2536 7.58418C27.4437 0.444809 50.2964 7.81413 49.8792 28.6803C49.4621 49.5464 36.1439 51.0056 36.1439 51.0056Z" fill="url(#paint0_linear_13_1407)"/>
<path opacity="0.6" d="M40.9732 1.64827C30.2331 -2.71264 26.7191 9.90014 20.1317 12.3032C13.5443 14.7063 -5.60713 16.157 2.99746 36.8103C9.99092 53.5953 35.0061 49.6485 45.0528 40.0532C55.0999 30.4584 50.891 5.67559 40.9732 1.64827Z" fill="url(#paint1_linear_13_1407)"/>
<path d="M4.3682 30.1388C3.40465 23.9881 7.79374 15.6512 15.796 11.5087C23.7983 7.36612 50.3739 -0.327748 48.6531 25.3446C46.9322 51.017 27.5273 47.7213 20.5962 46.016C13.6651 44.3108 5.60146 38.0107 4.3682 30.1388Z" fill="url(#paint2_linear_13_1407)"/>
<path d="M30.0956 24.8243C30.542 24.8243 31.1613 24.593 31.8014 23.8331V24.709H33.2767V16.7755H31.8014V22.7973C31.6224 23.0232 31.222 23.3912 30.9347 23.3912C30.6173 23.3912 30.542 23.1776 30.542 22.8588V16.7739H29.0652V23.4074C29.066 24.1896 29.3057 24.8243 30.0956 24.8243Z" fill="#5C5858"/>
<path d="M23.5303 22.729C23.5303 24.1274 24.2618 24.8559 25.6933 24.8559C26.8789 24.8559 27.8125 24.0637 27.8125 22.729V18.8417C27.8125 17.5985 26.8881 16.7095 25.6933 16.7095C24.3939 16.7095 23.5303 17.567 23.5303 18.8417V22.729ZM25.0501 18.9716C25.0501 18.5367 25.2507 18.2147 25.6648 18.2147C26.1166 18.2147 26.3103 18.5275 26.3103 18.9716V22.6629C26.3103 23.0955 26.0913 23.4152 25.6933 23.4152C25.2853 23.4152 25.0501 23.0809 25.0501 22.6629V18.9716Z" fill="#5C5858"/>
<path d="M20.0121 24.7092H21.6734V20.3463L23.6058 13.9526H21.92L20.855 18.2517L19.7086 13.9526H18.0366L20.0121 20.3463V24.7092Z" fill="#5C5858"/>
<path d="M35.2621 26.5149H17.8743C16.0072 26.5149 14.4927 28.0301 14.4927 29.8981V38.4433C14.4927 40.3112 16.0079 41.8257 17.8743 41.8257H35.2621C37.1308 41.8257 38.6445 40.3112 38.6445 38.4433V29.8981C38.6452 28.0301 37.1308 26.5149 35.2621 26.5149ZM20.1925 39.2931H18.6097V30.5374H16.9723V29.049H21.8284V30.5374H20.1918V39.2931H20.1925ZM25.8194 39.2931H24.4148V38.4594C24.1551 38.766 23.8854 39.0003 23.6057 39.1617C22.8504 39.5958 21.81 39.5874 21.81 38.0529V31.7376H23.2146V37.5289C23.2146 37.8347 23.2891 38.0391 23.5888 38.0391C23.8616 38.0391 24.2435 37.6879 24.414 37.4736V31.7384H25.8186V39.2931H25.8194ZM31.2273 37.7271C31.2273 38.6623 30.8784 39.3884 29.9433 39.3884C29.4285 39.3884 28.999 39.2009 28.6086 38.713V39.2931H27.1894V29.049H28.6086V32.3477C28.9244 31.9612 29.357 31.6423 29.8565 31.6423C30.8877 31.6423 31.2273 32.5114 31.2273 33.5356V37.7271ZM36.4215 35.6925H33.733V37.117C33.733 37.6841 33.7822 38.1736 34.3469 38.1736C34.9393 38.1736 34.9747 37.7755 34.9747 37.117V36.5922H36.4215V37.1601C36.4215 38.6154 35.7953 39.4975 34.3162 39.4975C32.9738 39.4975 32.2877 38.5201 32.2877 37.1601V33.7677C32.2877 32.4545 33.1536 31.5447 34.4199 31.5447C35.7692 31.5447 36.4215 32.4007 36.4215 33.7677V35.6925Z" fill="#5C5858"/>
<path d="M34.3617 32.8694C33.8407 32.8694 33.7332 33.2351 33.7332 33.7553V34.5191H34.9749V33.7553C34.9749 33.2428 34.865 32.8694 34.3617 32.8694Z" fill="#5C5858"/>
<path d="M28.8986 32.9155C28.8002 32.9663 28.7049 33.0423 28.6089 33.1468V37.8547C28.7234 37.9784 28.8333 38.0675 28.9416 38.1206C29.1698 38.2366 29.5056 38.2458 29.6593 38.043C29.743 37.9369 29.783 37.764 29.783 37.5228V33.6209C29.783 33.3658 29.7323 33.1714 29.6316 33.0408C29.4626 32.8157 29.1452 32.7918 28.8986 32.9155Z" fill="#5C5858"/>
<defs>
<linearGradient id="paint0_linear_13_1407" x1="46.3033" y1="15.47" x2="12.5815" y2="39.1991" gradientUnits="userSpaceOnUse">
<stop stop-color="#FDB600"/>
<stop offset="1" stop-color="#FFCF72"/>
</linearGradient>
<linearGradient id="paint1_linear_13_1407" x1="50.9362" y1="15.2579" x2="4.17056" y2="39.2267" gradientUnits="userSpaceOnUse">
<stop stop-color="#FDB600"/>
<stop offset="1" stop-color="#FFCF72"/>
</linearGradient>
<linearGradient id="paint2_linear_13_1407" x1="24.6543" y1="46.87" x2="28.2243" y2="6.56677" gradientUnits="userSpaceOnUse">
<stop stop-color="#FDB600"/>
<stop offset="1" stop-color="#FFCF72"/>
</linearGradient>
</defs>
</svg>
